<svg xmlns="http://www.w3.org/2000/svg" viewBox="0 0 1024 1024">
  <defs>
    <linearGradient id="background" x1="130" y1="80" x2="900" y2="970" gradientUnits="userSpaceOnUse">
      <stop stop-color="#8B7CFF"/>
      <stop offset="0.48" stop-color="#6E5BE7"/>
      <stop offset="1" stop-color="#4635AE"/>
    </linearGradient>
    <radialGradient id="glow" cx="0" cy="0" r="1" gradientTransform="translate(208 166) rotate(42) scale(730)" gradientUnits="userSpaceOnUse">
      <stop stop-color="#FFFFFF" stop-opacity="0.34"/>
      <stop offset="0.62" stop-color="#FFFFFF" stop-opacity="0"/>
    </radialGradient>
    <linearGradient id="warmSpot" x1="658" y1="214" x2="778" y2="348" gradientUnits="userSpaceOnUse">
      <stop stop-color="#FF9B7D"/>
      <stop offset="1" stop-color="#FF5D55"/>
    </linearGradient>
    <linearGradient id="coolSpot" x1="262" y1="698" x2="392" y2="842" gradientUnits="userSpaceOnUse">
      <stop stop-color="#72E3BA"/>
      <stop offset="1" stop-color="#32B98B"/>
    </linearGradient>
  </defs>
  <rect width="1024" height="1024" fill="url(#background)"/>
  <rect width="1024" height="1024" fill="url(#glow)"/>
  <circle cx="840" cy="182" r="244" fill="#FFFFFF" opacity="0.055"/>
  <circle cx="178" cy="862" r="274" fill="#1B125F" opacity="0.08"/>
  <path d="M714 286 C650 208 430 210 347 327 C263 447 369 510 526 548 C686 587 771 660 700 782 C630 902 406 887 318 772"
    fill="none" stroke="#FFFDF9" stroke-width="136" stroke-linecap="round" stroke-linejoin="round"/>
  <circle cx="714" cy="286" r="68" fill="url(#warmSpot)"/>
  <circle cx="318" cy="772" r="68" fill="url(#coolSpot)"/>
  <circle cx="782" cy="226" r="13" fill="#FFFDF9" opacity="0.9"/>
</svg>
