<svg xmlns="http://www.w3.org/2000/svg" viewBox="0 0 1024 1024">
  <defs>
    <linearGradient id="background" x1="90" y1="40" x2="930" y2="1010" gradientUnits="userSpaceOnUse">
      <stop stop-color="#242038"/>
      <stop offset="0.5" stop-color="#14151C"/>
      <stop offset="1" stop-color="#090A0D"/>
    </linearGradient>
    <radialGradient id="twilightGlow" cx="0" cy="0" r="1" gradientTransform="translate(242 190) rotate(43) scale(700)" gradientUnits="userSpaceOnUse">
      <stop stop-color="#9B8CFF" stop-opacity="0.42"/>
      <stop offset="0.68" stop-color="#7564E8" stop-opacity="0"/>
    </radialGradient>
    <linearGradient id="warmSpot" x1="658" y1="214" x2="778" y2="348" gradientUnits="userSpaceOnUse">
      <stop stop-color="#FFA28A"/>
      <stop offset="1" stop-color="#FF6C5C"/>
    </linearGradient>
    <linearGradient id="coolSpot" x1="262" y1="698" x2="392" y2="842" gradientUnits="userSpaceOnUse">
      <stop stop-color="#79E9BF"/>
      <stop offset="1" stop-color="#43C99B"/>
    </linearGradient>
    <filter id="shadow" x="150" y="110" width="730" height="820" filterUnits="userSpaceOnUse">
      <feDropShadow dx="0" dy="28" stdDeviation="30" flood-color="#000000" flood-opacity="0.42"/>
    </filter>
  </defs>
  <rect width="1024" height="1024" fill="url(#background)"/>
  <rect width="1024" height="1024" fill="url(#twilightGlow)"/>
  <circle cx="846" cy="174" r="248" fill="#9B8CFF" opacity="0.045"/>
  <circle cx="174" cy="868" r="280" fill="#000000" opacity="0.16"/>
  <g filter="url(#shadow)">
    <path d="M714 286 C650 208 430 210 347 327 C263 447 369 510 526 548 C686 587 771 660 700 782 C630 902 406 887 318 772"
      fill="none" stroke="#F7F6F2" stroke-width="136" stroke-linecap="round" stroke-linejoin="round"/>
    <circle cx="714" cy="286" r="68" fill="url(#warmSpot)"/>
    <circle cx="318" cy="772" r="68" fill="url(#coolSpot)"/>
  </g>
  <circle cx="782" cy="226" r="13" fill="#FFFFFF" opacity="0.94"/>
</svg>
